# xmcd CD database file
#
# Track frame offsets:
#	182
#	21332
#	31382
#	45407
#	69917
#	83582
#	97982
#	110057
#	123932
#	139832
#	159182
#	177257
#
# Disc length: 2559 seconds
#
# Revision: 0
# Processed by: cddbd v1.5.1PL0 Copyright (c) Steve Scherf et al.
# Submitted via: CDex 1.51
#
DISCID=8f09fd0c
DTITLE=Darryl Lamb - I'll Be Around
DYEAR=1900
DGENRE=Country
TTITLE0=I'll Be Around
TTITLE1=The Big ONe
TTITLE2=She Wears My Ring
TTITLE3=Only Thing To Do
TTITLE4=Ruby
TTITLE5=If We're Not Back In Love By Monday
TTITLE6=Win Your Girl
TTITLE7=Easy Come Easy Go
TTITLE8=Standing On A Star
TTITLE9=I'll Never Fall In Love Again
TTITLE10=Hard Rock Bottom Of Your Heart
TTITLE11=Bemboka Strut
EXTD=
EXTT0=
EXTT1=
EXTT2=
EXTT3=
EXTT4=
EXTT5=
EXTT6=
EXTT7=
EXTT8=
EXTT9=
EXTT10=
EXTT11=
PLAYORDER=
